<svg xmlns="http://www.w3.org/2000/svg" viewBox="0 0 1400.25 870.13"><defs><style>.cls-1,.cls-9{fill:#fff;}.cls-1,.cls-10{stroke:#000;stroke-width:0.25px;}.cls-2{fill:#243638;}.cls-3{fill:#0a1516;}.cls-4{fill:#fbfbfb;}.cls-5{fill:#ed412f;}.cls-6{fill:#ffa310;}.cls-7{fill:#71dd2a;}.cls-8{opacity:0.1;}.cls-10{fill:none;}</style></defs><title>browser_img</title><g id="Browser"><path class="cls-1" d="M198,220.53V991a18.57,18.57,0,0,0,18.47,18.56H1579.55A18.57,18.57,0,0,0,1598,991V220.53Z" transform="translate(-197.89 -139.53)"/><path class="cls-2" d="M1579.55,139.53H216.48A18.33,18.33,0,0,0,198,157.62v62.91H1598V157.62A18.33,18.33,0,0,0,1579.55,139.53Z" transform="translate(-197.89 -139.53)"/><circle class="cls-3" cx="41.46" cy="40.92" r="13"/><circle class="cls-4" cx="41.46" cy="40.92" r="11"/><circle class="cls-5" cx="41.46" cy="40.92" r="9"/><circle class="cls-3" cx="78.54" cy="40.92" r="13"/><circle class="cls-4" cx="78.54" cy="40.92" r="11"/><circle class="cls-6" cx="78.54" cy="40.92" r="9"/><circle class="cls-3" cx="115.62" cy="40.92" r="13"/><circle class="cls-4" cx="115.62" cy="40.92" r="11"/><circle class="cls-7" cx="115.62" cy="40.92" r="9"/><polygon class="cls-4" points="1375.81 27.16 1375.81 41.05 1370.46 35.71 1364.04 42.12 1360.84 38.92 1367.25 32.5 1361.91 27.16 1375.81 27.16"/><polygon class="cls-4" points="1360.77 45.4 1354.36 51.81 1359.7 57.16 1345.81 57.16 1345.81 43.26 1351.15 48.6 1357.56 42.19 1360.77 45.4"/><g class="cls-8"><path class="cls-2" d="M1508,274.65a9.8,9.8,0,0,1-9.7,9.85H433.73a9.8,9.8,0,0,1-9.7-9.85V246.34a9.8,9.8,0,0,1,9.7-9.85h1064.6a9.8,9.8,0,0,1,9.7,9.85Z" transform="translate(-197.89 -139.53)"/></g><polygon points="200.97 123.7 196.1 118.81 196.1 111.47 192.85 111.47 192.85 115.55 187.97 110.66 174.97 123.7 174.97 124.51 178.22 124.51 178.22 132.66 186.35 132.66 186.35 127.77 189.6 127.77 189.6 132.66 197.72 132.66 197.72 124.51 200.97 124.51 200.97 123.7"/><path d="M349,258.44h-8.25l3.08-3.08a8.25,8.25,0,1,0,0,11.67l.38-.4,2.07,1.81a11,11,0,1,1-.5-15l3.22-3.22Z" transform="translate(-197.89 -139.53)"/><polygon points="103.76 121.66 91.26 109.16 91.26 116.97 78.76 116.97 78.76 126.35 91.26 126.35 91.26 134.16 103.76 121.66"/><polygon points="24.58 121.66 37.08 134.16 37.08 126.35 49.58 126.35 49.58 116.97 37.08 116.97 37.08 109.16 24.58 121.66"/><rect class="cls-9" x="1342.48" y="107.16" width="25" height="5.02"/><rect class="cls-9" x="1342.48" y="117.15" width="25" height="5.02"/><rect class="cls-9" x="1342.48" y="127.14" width="25" height="5.02"/><rect class="cls-10" x="0.13" y="81" width="1400" height="74.58"/></g></svg>