<svg id="Layer_1" data-name="Layer 1" xmlns="http://www.w3.org/2000/svg" viewBox="0 0 793 744"><defs><style>.cls-1,.cls-4{fill:#fff;}.cls-1,.cls-2,.cls-3{stroke:#999;stroke-width:3px;}.cls-1,.cls-2,.cls-3,.cls-7{stroke-miterlimit:10;}.cls-2,.cls-7{fill:none;}.cls-3{fill:#999;}.cls-5{fill:#ccc;}.cls-6{fill:#f2f2f2;}.cls-7{stroke:#000;}.cls-8{fill:#ffb471;}.cls-9{fill:#eda666;}.cls-10{fill:#ffcd97;}.cls-11{fill:#f4b97d;}.cls-12{fill:#b5e2f4;}.cls-13{fill:#60caf1;}.cls-14{fill:#ee5632;}.cls-15{fill:#bfd852;}.cls-16{fill:#e0e0e2;}.cls-17{fill:#c6c5ca;}.cls-18{fill:#ffcd00;}.cls-19{fill:#00aeef;}.cls-20{fill:#231f20;}.cls-21{fill:#e7eced;}.cls-22{fill:#28384c;}.cls-23{fill:#dd352e;}.cls-24{fill:#ebba16;}.cls-25{fill:#23a24d;}.cls-26{fill:#afb6bb;}.cls-27{fill:#366db6;}</style></defs><title>spcLogo</title><line class="cls-1" x1="505" y1="277" x2="680.5" y2="101.5"/><line class="cls-2" x1="514.5" y1="477.5" x2="689.5" y2="652.5"/><line class="cls-1" x1="404.5" y1="377.5" x2="138" y2="111"/><line class="cls-3" x1="404.5" y1="377.5" x2="120" y2="662"/><path class="cls-4" d="M566.5,530.5c-80.5,0-146-65.5-146-146s65.5-146,146-146,146,65.5,146,146S647,530.5,566.5,530.5Z" transform="translate(-162 -8)"/><path class="cls-5" d="M566.5,240a144.5,144.5,0,1,1-102.18,42.32A143.55,143.55,0,0,1,566.5,240m0-3A147.5,147.5,0,1,0,714,384.5,147.5,147.5,0,0,0,566.5,237Z" transform="translate(-162 -8)"/><path class="cls-6" d="M841,751a91,91,0,1,1,91-91A91.1,91.1,0,0,1,841,751Z" transform="translate(-162 -8)"/><path class="cls-5" d="M841,570a90,90,0,1,1-90,90,90.1,90.1,0,0,1,90-90m0-2a92,92,0,1,0,92,92,92,92,0,0,0-92-92Z" transform="translate(-162 -8)"/><path class="cls-6" d="M255,206a91,91,0,1,1,91-91A91.1,91.1,0,0,1,255,206Z" transform="translate(-162 -8)"/><path class="cls-5" d="M255,25a90,90,0,1,1-90,90,90.1,90.1,0,0,1,90-90m0-2a92,92,0,1,0,92,92,92,92,0,0,0-92-92Z" transform="translate(-162 -8)"/><path class="cls-6" d="M254,747a91,91,0,1,1,91-91A91.1,91.1,0,0,1,254,747Z" transform="translate(-162 -8)"/><path class="cls-5" d="M254,566a90,90,0,1,1-90,90,90.1,90.1,0,0,1,90-90m0-2a92,92,0,1,0,92,92,92,92,0,0,0-92-92Z" transform="translate(-162 -8)"/><path class="cls-6" d="M864,189a90,90,0,1,1,90-90A90.1,90.1,0,0,1,864,189Z" transform="translate(-162 -8)"/><path class="cls-5" d="M864,10a89,89,0,1,1-89,89,89.1,89.1,0,0,1,89-89m0-2a91,91,0,1,0,91,91A91,91,0,0,0,864,8Z" transform="translate(-162 -8)"/><path class="cls-7" d="M566.5,304.5" transform="translate(-162 -8)"/><path d="M606.54,402.65V313.51c0-19.28-13.48-36.28-32.44-39.8a40.14,40.14,0,0,0-47.71,39.36v90a40.14,40.14,0,0,0,47.71,39.36C593.06,438.93,606.54,421.94,606.54,402.65Z" transform="translate(-162 -8)"/><path d="M630.8,379.54H619.4a1.1,1.1,0,0,0-1.1,1.1V420a12.34,12.34,0,0,1-3.33,8.5c-44.43,46.92-99.26,15.69-99.26-28.15V380.64a1.1,1.1,0,0,0-1.1-1.1H503.22a4.62,4.62,0,0,0-4.62,4.62v16.23c0,34,26.29,63.87,59.85,68.12V480h-36a4.62,4.62,0,0,0-4.62,4.62v7.86a4.62,4.62,0,0,0,4.62,4.62h88a4.62,4.62,0,0,0,4.62-4.62v-7.86a4.62,4.62,0,0,0-4.62-4.62H575.55v-11.5c33.56-4.24,59.85-34.16,59.85-68.12V384.15A4.6,4.6,0,0,0,630.8,379.54Z" transform="translate(-162 -8)"/><path class="cls-4" d="M594.2,212.12a38.08,38.08,0,0,0-53.85,0,4.21,4.21,0,0,0,6,6,29.66,29.66,0,0,1,41.94,0,4.21,4.21,0,1,0,6-6Z" transform="translate(-162 -8)"/><path class="cls-4" d="M608.39,197.93a58.21,58.21,0,0,0-82.23,0,4.21,4.21,0,1,0,6,6,49.78,49.78,0,0,1,70.31,0,4.21,4.21,0,0,0,6-6Z" transform="translate(-162 -8)"/><path class="cls-4" d="M621.75,184.57a77,77,0,0,0-109,0,4.21,4.21,0,1,0,6,6,68.7,68.7,0,0,1,97,0,4.21,4.21,0,1,0,6-6Z" transform="translate(-162 -8)"/><path class="cls-8" d="M913.06,85.05a28.06,28.06,0,0,1-21.23,27.21,7.39,7.39,0,0,0-5.57,7.19v3.8A14.59,14.59,0,0,1,882,133.61c-5.17,5.17-14.21,6.49-22.41-.71A7.78,7.78,0,0,1,857,127V77.75a17.13,17.13,0,0,1,5.13-11.31c15.67-13.65,32.88-11.1,42.76-1.23A28,28,0,0,1,913.06,85.05Z" transform="translate(-162 -8)"/><path class="cls-9" d="M866.53,120.5V82.35A28.1,28.1,0,0,1,881.7,57.23c-13.58,1.58-24.14,13.44-24.14,27.84v38.2a14.47,14.47,0,0,0,12.73,14.5,13.9,13.9,0,0,0,9.77-2.65A14.46,14.46,0,0,1,866.53,120.5Z" transform="translate(-162 -8)"/><path class="cls-10" d="M864.74,123.82V84.39A20.13,20.13,0,0,1,877.48,65.5a21.09,21.09,0,0,1,26.38,9.24,17.6,17.6,0,0,1,1.57,3.64A20.88,20.88,0,0,1,890.65,105a15.26,15.26,0,0,0-11.56,14.85v3.84a7,7,0,0,1-.88,3.51,7.26,7.26,0,0,1-8.9,3.25A7,7,0,0,1,864.74,123.82Z" transform="translate(-162 -8)"/><path class="cls-11" d="M878.49,90.11c0-.92,0-5.61,0-7.31a1.56,1.56,0,0,1,.42-1.08c5.47-5.72,12.25-1.51,11.7,4a.43.43,0,0,1-.12.26c-1.5,1.47-3.34,0-2.71-1.51a.79.79,0,0,0-.12-.83c-2.71-3.14-6.18-1.24-6.18,1.46v4.49c0,1.27-1.58,2.17-2.88.84A.4.4,0,0,1,878.49,90.11Z" transform="translate(-162 -8)"/><path class="cls-11" d="M888.3,99.12a1.63,1.63,0,0,1-.39-3.21,11.19,11.19,0,1,0-9-20.12,1.63,1.63,0,1,1-1.83-2.7,14.44,14.44,0,1,1,11.6,26A1.6,1.6,0,0,1,888.3,99.12Z" transform="translate(-162 -8)"/><path class="cls-11" d="M882.44,99.09h-2.88A1.57,1.57,0,0,1,878,97.73a1.49,1.49,0,0,1,1.49-1.63h2.88a1.57,1.57,0,0,1,1.6,1.36A1.5,1.5,0,0,1,882.44,99.09Z" transform="translate(-162 -8)"/><path class="cls-12" d="M852.38,83.54H833.84a1.63,1.63,0,0,1-1.15-.48L823,73.38h-3.43s-1.63-1.09-1.63-2,1.63-1.59,1.63-1.59h4.1a1.61,1.61,0,0,1,1.14.47l9.7,9.7h17.87S854,80.8,854,81.7,852.38,83.54,852.38,83.54Z" transform="translate(-162 -8)"/><path class="cls-12" d="M823.66,125.4h-4.05A1.57,1.57,0,0,1,818,124a1.5,1.5,0,0,1,1.49-1.63H823l9.69-9.69a1.63,1.63,0,0,1,1.15-.48h18.5a1.57,1.57,0,0,1,1.6,1.36,1.5,1.5,0,0,1-1.49,1.63H834.51l-9.69,9.69A1.63,1.63,0,0,1,823.66,125.4Z" transform="translate(-162 -8)"/><path class="cls-12" d="M852.38,99.09h-28.7a1.58,1.58,0,0,1-1.53-1,1.53,1.53,0,0,1,1.55-2h28.7a1.59,1.59,0,0,1,1.53,1A1.53,1.53,0,0,1,852.38,99.09Z" transform="translate(-162 -8)"/><path class="cls-13" d="M813.91,120.14v8.13a1.91,1.91,0,0,1-1.91,1.91h-5.14a1.91,1.91,0,0,1-1.91-1.91v-8.13a1.91,1.91,0,0,1,1.91-1.91H812A1.91,1.91,0,0,1,813.91,120.14Z" transform="translate(-162 -8)"/><path class="cls-14" d="M813.91,67.51v8.13A1.91,1.91,0,0,1,812,77.56h-5.14a1.91,1.91,0,0,1-1.91-1.91V67.51a1.91,1.91,0,0,1,1.91-1.91H812A1.91,1.91,0,0,1,813.91,67.51Z" transform="translate(-162 -8)"/><path class="cls-15" d="M816.75,97.56A4.78,4.78,0,1,1,812,92.78,4.78,4.78,0,0,1,816.75,97.56Z" transform="translate(-162 -8)"/><path class="cls-16" d="M867,624.26V606.75H815.12a6.94,6.94,0,0,0-6.89,7v14a30.76,30.76,0,0,1,29,3.14,31.79,31.79,0,0,1,8.91,42.87l16.2,16.43a7.07,7.07,0,0,1-.23,9.65,6.85,6.85,0,0,1-9.53.24l-16.22-16.41a30.82,30.82,0,0,1-28.14,2.57v15a6.94,6.94,0,0,0,6.89,7H880.8a6.94,6.94,0,0,0,6.89-7V627.75H870.41A3.47,3.47,0,0,1,867,624.26Zm13.83,73.52a3.47,3.47,0,0,1-3.45,3.49A3.47,3.47,0,0,0,880.79,697.78Z" transform="translate(-162 -8)"/><path class="cls-17" d="M870.41,627.75h17.23L867,606.8v17.46A3.47,3.47,0,0,0,870.41,627.75Z" transform="translate(-162 -8)"/><path class="cls-18" d="M836.48,683.72a31.1,31.1,0,0,0,9.76-9.88,31.78,31.78,0,0,0,.89-31.92A31.15,31.15,0,1,0,820,688.54,30.39,30.39,0,0,0,836.48,683.72Zm-28.08-5.15a24.61,24.61,0,0,1-9.65-33.13,24,24,0,0,1,32.69-9.82,24.61,24.61,0,0,1,9.74,33.11,24,24,0,0,1-32.78,9.85Z" transform="translate(-162 -8)"/><path class="cls-17" d="M837,674.4a23.78,23.78,0,0,0,4.15-5.67,24.66,24.66,0,0,0-6.81-31.24,23.91,23.91,0,0,0-31.5,2.32,24.69,24.69,0,0,0-2.29,31.91,23.94,23.94,0,0,0,30.84,6.9A23.54,23.54,0,0,0,837,674.4Z" transform="translate(-162 -8)"/><path class="cls-19" d="M836.48,683.72l16.18,16.38a6.83,6.83,0,0,0,9.5-.24,7,7,0,0,0,.23-9.63l-16.17-16.39A31.1,31.1,0,0,1,836.48,683.72Z" transform="translate(-162 -8)"/><path class="cls-20" d="M889.4,627.64a1.7,1.7,0,0,0-.09-.45c0-.06,0-.11-.06-.16a1.76,1.76,0,0,0-.35-.51l-20.73-21a1.7,1.7,0,0,0-.51-.35l-.16-.06a1.68,1.68,0,0,0-.45-.09s-.06,0-.1,0H815.14a8.71,8.71,0,0,0-8.64,8.75v12.88a33.36,33.36,0,0,0,0,60.73v13.89a8.71,8.71,0,0,0,8.64,8.75h65.65a8.7,8.7,0,0,0,8.64-8.75v-73.5S889.4,627.68,889.4,627.64ZM883.49,626H870.41a1.73,1.73,0,0,1-1.72-1.75V611Zm-92.81,31.12a29.84,29.84,0,0,1,8.57-21A29.07,29.07,0,0,1,820,627.44q1.47,0,2.91.14a29.39,29.39,0,0,1,26,25.09,30.35,30.35,0,0,1,.36,4.44,29.72,29.72,0,0,1-4.5,15.8,29.36,29.36,0,0,1-9.22,9.34,29,29,0,0,1-29.76.84A29.74,29.74,0,0,1,790.67,657.12ZM840,683.34l.7-.56a29.23,29.23,0,0,0,4.62-4.68l.55-.71c.21-.28.44-.54.63-.82l14.69,14.9a5.19,5.19,0,0,1-7.3,7.39L839.18,684C839.46,683.78,839.72,683.56,840,683.34Zm40.8,23.16H815.3s-5.17-2.34-5.35-5.23v-12.5a2.78,2.78,0,0,1,.51.09l.83.23c.64.17,1.29.35,2,.48l1,.19c.66.12,1.32.21,2,.29l.89.1c1,.08,1.92.14,2.89.14a32.21,32.21,0,0,0,16.23-4.38l15.24,15.42a8.55,8.55,0,0,0,8.46,2.58,8.67,8.67,0,0,0,6.25-6.33,8.8,8.8,0,0,0-2.54-8.58l-15.23-15.44a33.28,33.28,0,0,0,4.33-16.44q0-1.66-.16-3.29a33.18,33.18,0,0,0-9.43-20.17A32.32,32.32,0,0,0,820,623.95c-1,0-1.93.05-2.89.14l-.89.1q-1,.11-2,.29l-1,.19c-.65.14-1.29.3-1.93.47l-.86.24c-.11,0,.37.09.37.09V613.74A5.2,5.2,0,0,1,816,608.5h49.25v15.76a5.2,5.2,0,0,0,5.17,5.24H886v71.76A5.2,5.2,0,0,1,880.79,706.5Z" transform="translate(-162 -8)"/><path class="cls-20" d="M856.64,615.5H818.78a1.75,1.75,0,1,0-.07,3.5h38a1.75,1.75,0,1,0-.07-3.5Z" transform="translate(-162 -8)"/><path class="cls-20" d="M877.37,647H856.71a1.75,1.75,0,1,0-.07,3.5H877.3a1.75,1.75,0,1,0,.07-3.5Z" transform="translate(-162 -8)"/><path class="cls-20" d="M877.37,657.5H856.71a1.75,1.75,0,1,0-.07,3.5H877.3a1.75,1.75,0,1,0,.07-3.5Z" transform="translate(-162 -8)"/><path class="cls-20" d="M877.3,668H855a1.75,1.75,0,1,0-.07,3.5h22.46a1.75,1.75,0,1,0-.07-3.5Z" transform="translate(-162 -8)"/><path class="cls-20" d="M877.3,678.5H861.89a1.75,1.75,0,1,0-.07,3.5h15.55a1.75,1.75,0,1,0-.07-3.5Z" transform="translate(-162 -8)"/><path class="cls-20" d="M856.61,626H842.93a1.75,1.75,0,1,0-.07,3.5h13.82a1.75,1.75,0,1,0-.07-3.5Z" transform="translate(-162 -8)"/><path class="cls-20" d="M877.31,636.5H851.54a1.75,1.75,0,1,0-.07,3.5h25.91a1.75,1.75,0,1,0-.07-3.5Z" transform="translate(-162 -8)"/><path class="cls-20" d="M813.57,648.75h12a1.75,1.75,0,1,0,.07-3.5h-12a1.75,1.75,0,1,0-.07,3.5Z" transform="translate(-162 -8)"/><path class="cls-20" d="M832.5,655.75H806.73a1.75,1.75,0,1,0-.07,3.5h25.91a1.75,1.75,0,1,0-.07-3.5Z" transform="translate(-162 -8)"/><path class="cls-20" d="M825.66,666.25h-12a1.75,1.75,0,1,0-.07,3.5h12a1.75,1.75,0,1,0,.07-3.5Z" transform="translate(-162 -8)"/><path class="cls-20" d="M832.41,680.15a25.43,25.43,0,0,0,10.05-9.88c.14-.24.28-.47.41-.72s.12-.26.18-.38c.26-.51.52-1,.74-1.54s.4-1,.59-1.53c.05-.15.12-.29.17-.44a26.31,26.31,0,0,0-14.11-32.52,25.7,25.7,0,0,0-33.13,11.66,26.47,26.47,0,0,0,9.56,34.84,25.53,25.53,0,0,0,25.53.54Zm-23.32-3.25A22.11,22.11,0,0,1,804,673a22.77,22.77,0,0,1-2.79-3.44q-.61-.92-1.12-1.89A22.74,22.74,0,0,1,806.53,639a22.05,22.05,0,0,1,29,2.14,22.89,22.89,0,0,1,3.83,26.64h0a22.15,22.15,0,0,1-30.23,9.07Z" transform="translate(-162 -8)"/><path class="cls-20" d="M879.05,690.19v8.67a.63.63,0,0,1-.63.64h-8.56a.67.67,0,0,0-.48.2c-1.44,1.51-.41,3.3,1,3.3h10.2a1.9,1.9,0,0,0,1.89-1.91V690.75c0-1.46-1.77-2.51-3.26-1A.68.68,0,0,0,879.05,690.19Z" transform="translate(-162 -8)"/><path d="M254,629.46a2,2,0,1,0,.58,1.41A2,2,0,0,0,254,629.46Z" transform="translate(-162 -8)"/><path d="M263.12,674.2a2,2,0,1,0,.58,1.41A2,2,0,0,0,263.12,674.2Z" transform="translate(-162 -8)"/><path d="M265.36,644.67a2.59,2.59,0,0,0-2.33,2v12.67a2.59,2.59,0,0,0,2.33,2,2.13,2.13,0,0,0,2.08-2V646.66A2.13,2.13,0,0,0,265.36,644.67Z" transform="translate(-162 -8)"/><path d="M259.86,661.29a2.06,2.06,0,0,0,.56-2.35l-4.77-12.57a2,2,0,0,0-3.73,0L247.16,659a2,2,0,0,0,.56,2.32,2,2,0,0,0,3.14-.83l.53-1.39h4.83l.53,1.39a2,2,0,0,0,1.86,1.29A2,2,0,0,0,259.86,661.29Zm-7-6.64.9-2.38.9,2.38Z" transform="translate(-162 -8)"/><path d="M301.44,690.45a6.73,6.73,0,0,0-3.17.79l-5.5-5.31v-2.71a13.14,13.14,0,0,0,2.56-14.38,9.72,9.72,0,0,0,7.36-9.41V641.53a9.71,9.71,0,0,0-9-9.67,9.44,9.44,0,0,0-.93-7.19v-4.6l5.5-5.31a6.78,6.78,0,1,0-2.82-2.82l-5.89,5.9c-.37.37-1.2,1.41-1.2,1.41v1.85a9.19,9.19,0,0,0-6.38-.65,11.3,11.3,0,0,0-11.78-8.67,11.55,11.55,0,0,0-10.48,11.66v12.49H246.81a2,2,0,0,0-1.4.58l-4.92,4.87a2,2,0,0,0-.59,1.42v20.43a2,2,0,0,0,.59,1.42l4.92,4.87a2,2,0,0,0,1.4.58h4.11v12.44a7.63,7.63,0,0,1-14.6,3.31,13.12,13.12,0,0,0,4.6-3.39,5.76,5.76,0,0,0,2.85-.15,5.44,5.44,0,0,0,3.62-3.75,5.57,5.57,0,1,0-9.88,1.69,9.19,9.19,0,0,1-10.37,1.89A8.92,8.92,0,0,1,222,675.5a9.05,9.05,0,0,1,1.51-6.82,9.75,9.75,0,0,0,3.36-1.51,6.67,6.67,0,0,0,5.32,1,6.57,6.57,0,0,0,4.89-4.88,6.63,6.63,0,0,0-8-8,6.55,6.55,0,0,0-4.84,4.66,6.65,6.65,0,0,0,.18,4.07,5.66,5.66,0,0,1-8.77-4.85V641.79a5.71,5.71,0,0,1,4.51-5.68,5.59,5.59,0,0,1,6.44,4,5.49,5.49,0,1,0,4-.14,9.56,9.56,0,0,0-5.3-7,5.38,5.38,0,0,1-.78-5.33,5.17,5.17,0,0,1,2.5-2.75,5.39,5.39,0,0,1,4.55-.17,8.41,8.41,0,0,0,1.69,4.3,6.24,6.24,0,0,0-.09,3.71,6.19,6.19,0,0,0,12.08-2.56,6.18,6.18,0,0,0-9.38-4.43,4.53,4.53,0,0,1-.4-1.85v-.5a2,2,0,0,0,0-.22v-2.81a2.09,2.09,0,0,1,.57-1.45c6.57-6.79,14.68-1.83,14.15,4.73a.6.6,0,0,0,.15.46c1.7,1.75,3.76.58,3.76-1.08a11.26,11.26,0,0,0-22.22-2.58,9.18,9.18,0,0,0-6.32.63v-1.85a5.2,5.2,0,0,0-.75-1.41l-5.9-5.89a6.78,6.78,0,1,0-2.82,2.82l5.05,5.31v4.65a9.4,9.4,0,0,0-1,7.24,9.67,9.67,0,0,0-8.94,9.63V659.4a9.67,9.67,0,0,0,7.32,9.37,13.08,13.08,0,0,0,2.59,14.36v2.8l-5.05,5.31a6.78,6.78,0,1,0,2.82,2.82l5.9-5.9a5.21,5.21,0,0,0,.75-1.41v-1a13.21,13.21,0,0,0,5.5,1.19,13.35,13.35,0,0,0,1.42-.08l.19.42a11.79,11.79,0,0,0,22.64-4.64V670.08h12.12a2,2,0,0,0,1.44-.62l4.61-4.83a2,2,0,0,0,.55-1.38v-20.5a2,2,0,0,0-.55-1.38l-4.61-4.83a2,2,0,0,0-1.44-.62H263V623.49a7.71,7.71,0,0,1,15.42-.27v-.54a2.1,2.1,0,0,0,0,.23v.26a4.77,4.77,0,0,1-.42,2,6.54,6.54,0,1,0,2.76,3.47,8.88,8.88,0,0,0,1.78-4.54,5.64,5.64,0,0,1,6.61,8.71,10.09,10.09,0,0,0-5.6,7.35,5.79,5.79,0,1,0,4.23.15,5.89,5.89,0,0,1,11.56,1.59v19.39a1.87,1.87,0,0,1-.52,1.33c-2.72,2.71-6,2.95-8.28,1.43a7.25,7.25,0,0,0-1.17-6.9,2.4,2.4,0,0,0-.56-.55c-6.9-4.85-14.51,2.77-9.63,9.67a2.42,2.42,0,0,0,.57.57,7.06,7.06,0,0,0,8.31.38,9.78,9.78,0,0,0,3.38,1.52c2.07,2.94,2.27,6.83.2,10.58a3.26,3.26,0,0,1-.58.75c-4.47,4.34-10.3,3.75-13.67.32a5.91,5.91,0,0,0-.26-7.07,2.06,2.06,0,0,0-.48-.48c-5.77-4.07-12.14,2.28-8.12,8.05a2.1,2.1,0,0,0,.48.49,6.22,6.22,0,0,0,5,1.23,13.19,13.19,0,0,0,4.62,3.42c-2.3,5.15-9.88,6.89-14.7,0a2.17,2.17,0,0,1-.19-2.15c1-2.1-1.51-4.13-3.55-2.18a.75.75,0,0,0-.22.49c-.58,9.52,10.31,16.81,20.14,9.33a3.87,3.87,0,0,0,1.17-1.52l1.28-2.89a13.09,13.09,0,0,0,6.9-1.13v.85s-.28,1,.09,1.41l5.9,5.9a6.77,6.77,0,1,0,6-3.6Zm0-84.47a2.79,2.79,0,1,1-2.79,2.79A2.79,2.79,0,0,1,301.44,606Zm-59.64,69.52a1.55,1.55,0,1,1-1.55,1.55A1.56,1.56,0,0,1,241.79,675.51Zm-11.34-16.35a2.62,2.62,0,1,1-2.62,2.62A2.62,2.62,0,0,1,230.46,659.16Zm-1.66-15.52a1.55,1.55,0,1,1-1.55,1.55A1.56,1.56,0,0,1,228.8,643.64Zm10.44-14.94A2.26,2.26,0,1,1,237,631,2.27,2.27,0,0,1,239.24,628.7ZM213,611.56a2.79,2.79,0,1,1,2.79-2.79A2.79,2.79,0,0,1,213,611.56ZM213,700a2.79,2.79,0,1,1,2.79-2.79A2.79,2.79,0,0,1,213,700ZM267,639.23l3.73,3.73v19L267,665.67H248l-3.73-3.73V643l3.73-3.73h19Zm8.1-6a2.26,2.26,0,1,1,2.26-2.26A2.27,2.27,0,0,1,275.11,633.23Zm10.44,13.52a1.55,1.55,0,1,1,1.55-1.55A1.56,1.56,0,0,1,285.55,646.75Zm-1.66,17.65a2.62,2.62,0,1,1,2.62-2.62A2.62,2.62,0,0,1,283.89,664.4Zm-11.34,14.22a1.55,1.55,0,1,1,1.55-1.55A1.56,1.56,0,0,1,272.55,678.62ZM301.44,700a2.79,2.79,0,1,1,2.79-2.79A2.79,2.79,0,0,1,301.44,700Z" transform="translate(-162 -8)"/><path class="cls-21" d="M296.62,159H218.38a5.38,5.38,0,0,1-5.38-5.38V84.83h89v68.78A5.38,5.38,0,0,1,296.62,159Z" transform="translate(-162 -8)"/><path class="cls-22" d="M302,88.13H213V75.38A5.38,5.38,0,0,1,218.38,70h78.23A5.38,5.38,0,0,1,302,75.38Z" transform="translate(-162 -8)"/><path class="cls-23" d="M219.59,76.59h5.77v5.77h-5.77Z" transform="translate(-162 -8)"/><path class="cls-24" d="M231.13,76.59h5.77v5.77h-5.77Z" transform="translate(-162 -8)"/><path class="cls-25" d="M243.49,76.59h5.77v5.77h-5.77Z" transform="translate(-162 -8)"/><path class="cls-4" d="M286.34,96.37v26.37H227.83V96.37Z" transform="translate(-162 -8)"/><path class="cls-26" d="M286.34,121.92V159H227.83V121.92Z" transform="translate(-162 -8)"/><path class="cls-24" d="M242.88,116.15a6.92,6.92,0,1,1,6.92-6.92A6.94,6.94,0,0,1,242.88,116.15Z" transform="translate(-162 -8)"/><path class="cls-27" d="M279.8,117.8h-23.1a1.57,1.57,0,0,1-1.42-.82,1.67,1.67,0,0,1,1.44-2.48h23.1a1.57,1.57,0,0,1,1.42.82A1.66,1.66,0,0,1,279.8,117.8Z" transform="translate(-162 -8)"/><path class="cls-4" d="M259.81,133.45H236.7a1.57,1.57,0,0,1-1.42-.82,1.66,1.66,0,0,1,1.44-2.48h23.1a1.57,1.57,0,0,1,1.42.82A1.67,1.67,0,0,1,259.81,133.45Z" transform="translate(-162 -8)"/><path class="cls-4" d="M276,140.87H237.59a1.6,1.6,0,0,1-1.54-1.07,1.64,1.64,0,0,1,1.45-2.22h38.36a1.6,1.6,0,0,1,1.54,1.07A1.64,1.64,0,0,1,276,140.87Z" transform="translate(-162 -8)"/><path class="cls-4" d="M276,148.29H237.59a1.6,1.6,0,0,1-1.54-1.07A1.64,1.64,0,0,1,237.5,145h38.37a1.6,1.6,0,0,1,1.54,1.07A1.64,1.64,0,0,1,276,148.29Z" transform="translate(-162 -8)"/><path class="cls-26" d="M227.83,89h58.51v7.42H227.83Z" transform="translate(-162 -8)"/><path class="cls-23" d="M277.39,111.2h-7.64a1.54,1.54,0,0,1-1.54-1.54V102a1.54,1.54,0,0,1,1.54-1.54h7.64a1.54,1.54,0,0,1,1.54,1.54v7.64A1.54,1.54,0,0,1,277.39,111.2Zm-5.88-2.47h4.94v-4.94h-4.94Z" transform="translate(-162 -8)"/></svg>